<?xml version="1.0" encoding="utf-8"?>
<!-- Generator: Adobe Illustrator 21.1.0, SVG Export Plug-In . SVG Version: 6.00 Build 0)  -->
<svg version="1.1" id="Layer_1" xmlns="http://www.w3.org/2000/svg" xmlns:xlink="http://www.w3.org/1999/xlink" x="0px" y="0px"
	 viewBox="0 0 500 500" style="enable-background:new 0 0 500 500;" xml:space="preserve">
<style type="text/css">
	.st0{fill:none;stroke:#fff;stroke-miterlimit:10;stroke-width:14;}
	.st1{fill:none;stroke:#fff;stroke-miterlimit:10;stroke-width:14;}
</style>
<polygon class="st0" points="250,50 423.2,150 423.2,350 250,450 76.8,350 76.8,150 "/>
<line class="st1" x1="423.2" y1="150" x2="358.3" y2="187.5"/>
<line class="st1" x1="250" y1="50" x2="358.3" y2="187.5"/>
<line class="st1" x1="250" y1="450" x2="250" y2="375"/>
<line class="st1" x1="358.3" y1="187.5" x2="423.2" y2="350"/>
<line class="st1" x1="250" y1="375" x2="423.2" y2="350"/>
<line class="st1" x1="76.8" y1="150" x2="141.7" y2="187.5"/>
<line class="st1" x1="76.8" y1="350" x2="141.7" y2="187.5"/>
<line class="st1" x1="250" y1="50" x2="141.7" y2="187.5"/>
<line class="st1" x1="358.3" y1="187.5" x2="141.7" y2="187.5"/>
<line class="st1" x1="250" y1="375" x2="358.3" y2="187.5"/>
<line class="st1" x1="141.7" y1="187.5" x2="250" y2="375"/>
<line class="st1" x1="76.8" y1="350" x2="250" y2="375"/>
</svg>
