<?xml version="1.0" encoding="iso-8859-1"?>
<!-- Generator: Adobe Illustrator 16.0.0, SVG Export Plug-In . SVG Version: 6.00 Build 0)  -->
<!DOCTYPE svg PUBLIC "-//W3C//DTD SVG 1.1//EN" "http://www.w3.org/Graphics/SVG/1.1/DTD/svg11.dtd">
<svg version="1.1" id="Capa_1" xmlns="http://www.w3.org/2000/svg" xmlns:xlink="http://www.w3.org/1999/xlink" x="0px" y="0px"
	 width="446.6px" height="446.6px" viewBox="0 0 446.6 446.6" style="enable-background:new 0 0 446.6 446.6;" xml:space="preserve"
	>
	<style type="text/css">
		path{fill: #fff;}
	</style>
<g>
	<g>
		<path d="M129.437,446.6H317.16c16.706,0,30.306-13.604,30.306-30.31V30.303C347.465,13.593,333.866,0,317.16,0H129.437
			C112.73,0,99.134,13.593,99.134,30.303V416.29C99.134,432.996,112.73,446.6,129.437,446.6z M110.984,30.303
			c0-10.166,8.287-18.454,18.453-18.454H317.16c10.182,0,18.453,8.288,18.453,18.454V416.29c0,10.181-8.271,18.463-18.453,18.463
			H129.437c-10.166,0-18.453-8.282-18.453-18.463V30.303L110.984,30.303z"/>
		<path d="M125.677,394.068h195.25c1.636,0,2.961-1.33,2.961-2.966V52.242c0-1.636-1.325-2.963-2.961-2.963h-195.25
			c-1.635,0-2.963,1.328-2.963,2.963v338.86C122.714,392.738,124.042,394.068,125.677,394.068z M136.541,55.202h173.525
			c4.356,0,7.896,3.54,7.896,7.901v317.138c0,4.361-3.539,7.901-7.896,7.901H136.541c-4.362,0-7.901-3.54-7.901-7.901V63.104
			C128.64,58.742,132.171,55.202,136.541,55.202z"/>
		<path d="M206.637,31.234h33.332c1.635,0,2.961-1.328,2.961-2.963c0-1.635-1.326-2.961-2.961-2.961h-33.332
			c-1.635,0-2.963,1.326-2.963,2.961C203.674,29.906,205.002,31.234,206.637,31.234z"/>
		<path d="M240.36,400.837h-34.126c-7.008,0-12.71,5.703-12.71,12.705v2.037c0,7.007,5.71,12.71,12.71,12.71h34.126
			c7.008,0,12.716-5.713,12.716-12.71v-2.031C253.081,406.54,247.368,400.837,240.36,400.837z M247.155,415.579
			c0,3.742-3.042,6.784-6.784,6.784h-34.129c-3.738,0-6.787-3.047-6.787-6.784v-2.031c0-3.738,3.06-6.779,6.787-6.779h34.129
			c3.753,0,6.784,3.052,6.784,6.779V415.579z"/>
		<path d="M291.5,255.922l-26.924-11.969c-1.294-0.568-2.823-0.878-4.473-0.878c-3.316,0-6.652,1.229-8.704,3.225l-8.485,8.216
			c-1.249,1.224-3.499,2.046-5.57,2.046c-0.894,0-1.666-0.162-2.25-0.462c-5.728-2.869-14.736-8.602-25.108-19.601
			c-9.196-9.755-13.563-16.453-15.617-20.355c-1.148-2.173,0.045-5.949,1.848-7.736l7.543-7.543
			c3.136-3.144,4.55-8.912,3.207-13.137l-8.482-26.949c-1.297-4.101-5.649-8.34-10.722-8.34
			c-7.038,0.236-16.912,2.757-24.006,13.406c-10.974,16.463-10.311,48.183,9.89,70.681c18.748,20.906,46.722,44.076,46.951,44.265
			c0.599,0.543,14.924,13.35,36.054,13.35c2.057,0,4.118-0.132,6.169-0.37c22.928-2.773,31.342-17.474,34.302-25.984
			C298.67,263.407,296.081,257.964,291.5,255.922z M292.597,266.194c-2.59,7.46-10.003,20.343-30.336,22.811
			c-1.863,0.219-3.752,0.33-5.601,0.33c-19.073,0-32.344-11.648-32.913-12.167c-0.276-0.229-28.117-23.328-46.521-43.833
			c-18.067-20.146-19.489-49.787-9.473-64.82c5.972-8.952,14.315-11.07,20.271-11.268c2.44,0.01,5.152,2.679,5.878,4.986
			l8.485,26.938c0.805,2.537-0.142,6.414-2.039,8.295l-7.543,7.543c-3.09,3.09-4.908,9.196-2.702,13.385
			c2.186,4.154,6.799,11.248,16.384,21.409c10.847,11.501,20.35,17.555,26.434,20.596c1.233,0.62,2.762,0.955,4.412,0.955
			c3.352,0,6.765-1.305,8.923-3.397l8.484-8.216c1.696-1.646,5.713-2.361,7.882-1.401l26.908,11.964
			C291.592,261.229,293.364,264.001,292.597,266.194z"/>
	</g>
</g>
<g>
</g>
<g>
</g>
<g>
</g>
<g>
</g>
<g>
</g>
<g>
</g>
<g>
</g>
<g>
</g>
<g>
</g>
<g>
</g>
<g>
</g>
<g>
</g>
<g>
</g>
<g>
</g>
<g>
</g>
</svg>
